<?xml version="1.0" standalone="no"?>
<!DOCTYPE svg PUBLIC "-//W3C//DTD SVG 20010904//EN"
 "http://www.w3.org/TR/2001/REC-SVG-20010904/DTD/svg10.dtd">
<svg version="1.0" xmlns="http://www.w3.org/2000/svg"
 width="200.000000pt" height="200.000000pt" viewBox="0 0 200.000000 200.000000"
 preserveAspectRatio="xMidYMid meet">
<metadata>
Created by potrace 1.14, written by Peter Selinger 2001-2017
</metadata>
<g transform="translate(0.000000,200.000000) scale(0.100000,-0.100000)"
fill="#000000" stroke="none">
<path d="M433 1250 c-12 -5 -26 -17 -31 -27 -14 -26 -14 -441 0 -476 11 -28
53 -57 82 -57 9 0 33 7 55 16 35 14 45 26 86 105 25 49 48 89 50 89 3 0 23
-37 45 -83 43 -87 72 -114 131 -124 36 -5 88 24 95 54 9 32 24 41 67 36 27 -4
37 -10 37 -23 0 -34 12 -49 45 -60 41 -14 71 -1 85 36 17 44 13 54 -23 54 -35
0 -106 40 -155 87 -88 85 -152 205 -154 289 -1 30 -3 54 -5 54 -6 0 -26 -45
-29 -69 -3 -14 -12 -57 -22 -94 l-17 -69 -34 60 c-57 102 -91 91 -161 -53 -23
-48 -44 -85 -46 -83 -2 2 -4 72 -5 155 -1 127 -4 154 -17 166 -24 21 -53 27
-79 17z"/>
<path d="M1105 1248 c-50 -29 -50 -35 9 -100 37 -40 76 -101 114 -176 31 -63
67 -121 78 -129 36 -23 65 -1 108 85 65 127 63 128 61 -31 -2 -182 6 -201 80
-200 32 1 34 2 48 31 10 20 13 81 13 249 -1 219 -2 222 -25 247 -33 35 -55 40
-106 26 -48 -13 -71 -40 -123 -144 -33 -68 -25 -73 -87 49 -44 85 -116 124
-170 93z m119 -74 c22 -22 33 -44 34 -68 2 -20 -1 -36 -6 -36 -4 0 -9 12 -10
26 -3 42 -34 83 -74 101 -45 20 -51 36 -7 21 17 -6 45 -25 63 -44z m-32 -28
c19 -23 23 -46 9 -46 -5 0 -12 11 -15 24 -3 14 -15 28 -26 31 -11 3 -20 10
-20 15 0 15 33 -1 52 -24z"/>
<path d="M900 1243 c-8 -3 -18 -11 -22 -17 -11 -17 -9 -74 4 -118 10 -36 14
-39 37 -32 62 17 101 8 133 -28 35 -41 36 -112 1 -151 -17 -18 -16 -19 7 -38
144 -110 210 -18 114 160 -44 82 -103 148 -174 196 -51 34 -69 39 -100 28z"/>
</g>
</svg>
